<svg width="81" height="55" viewBox="0 0 81 55" fill="none" xmlns="http://www.w3.org/2000/svg">
<path d="M80.0163 26.0836C80.0163 36.3838 72.5503 44.7343 63.3353 44.7343H18.549C9.33404 44.7343 1.86426 36.3813 1.86426 26.0836V19.4842C1.86426 9.184 9.33529 0.833496 18.549 0.833496H63.3353C72.5503 0.833496 80.0163 9.184 80.0163 19.4842V26.0836Z" fill="#CDCBCA"/>
<path d="M80.5 36.7554C80.5 41.1638 73.0302 44.7388 63.8152 44.7388H19.029C9.81397 44.7388 2.34668 41.1638 2.34668 36.7554V33.9283C2.34668 29.5198 9.81397 25.9448 19.029 25.9448H63.814C73.0302 25.9448 80.4988 29.5198 80.4988 33.9283L80.5 36.7554Z" fill="#F48020"/>
<path d="M77.2185 18.6642C77.2185 23.0714 71.8258 26.6464 65.1818 26.6464H32.8651C26.2174 26.6464 20.8284 23.0714 20.8284 18.6642V15.8372C20.8284 11.43 26.2174 7.85498 32.8651 7.85498H65.178C71.8245 7.85498 77.216 11.43 77.216 15.8372L77.2185 18.6642Z" fill="#EE3E25"/>
<path d="M33.3259 18.2451C33.3259 21.3449 32.5225 23.859 31.532 23.859H26.7106C25.7201 23.859 24.9167 21.3449 24.9167 18.2451V16.2589C24.9167 13.1616 25.7201 10.645 26.7106 10.645H31.532C32.5225 10.645 33.3259 13.1591 33.3259 16.2589V18.2451ZM72.8429 18.2451C72.8429 21.3449 72.0383 23.859 71.0465 23.859H66.2288C65.2371 23.859 64.435 21.3449 64.435 18.2451V16.2589C64.435 13.1616 65.2371 10.645 66.2288 10.645H71.0453C72.0395 10.645 72.8416 13.1591 72.8416 16.2589L72.8429 18.2451ZM59.5425 18.2451C59.5425 21.3449 58.7379 23.859 57.7486 23.859H52.9272C51.938 23.859 51.1333 21.3449 51.1333 18.2451V16.2589C51.1333 13.1616 51.938 10.645 52.9272 10.645H57.7486C58.7379 10.645 59.5425 13.1591 59.5425 16.2589V18.2451ZM46.3705 18.2451C46.3705 21.3449 45.5684 23.859 44.5779 23.859H39.7578C38.7673 23.859 37.9639 21.3449 37.9639 18.2451V16.2589C37.9639 13.1616 38.7698 10.645 39.7578 10.645H44.5792C45.5697 10.645 46.3718 13.1591 46.3718 16.2589L46.3705 18.2451Z" fill="#A2C2CA"/>
<path d="M28.5716 44.7406C28.5711 46.6051 28.022 48.4277 26.9938 49.9778C25.9656 51.5279 24.5044 52.7361 22.7949 53.4495C21.0854 54.163 19.2044 54.3497 17.3896 53.9861C15.5749 53.6225 13.9078 52.7249 12.5992 51.4068C11.2905 50.0886 10.3991 48.4091 10.0376 46.5806C9.676 44.752 9.86056 42.8565 10.5679 41.1336C11.2752 39.4107 12.4736 37.9378 14.0115 36.901C15.5494 35.8643 17.3578 35.3103 19.2081 35.3091C21.6909 35.3087 24.0722 36.3022 25.8281 38.0709C27.5841 39.8396 28.5709 42.2388 28.5716 44.7406Z" fill="white"/>
<path d="M26.9084 44.7394C26.9078 45.7576 26.7081 46.7657 26.3208 47.7061C25.9335 48.6465 25.3662 49.5009 24.6513 50.2204C23.2074 51.6735 21.2498 52.4891 19.2091 52.4878C17.1685 52.4864 15.2119 51.6683 13.7699 50.2133C12.3278 48.7583 11.5185 46.7857 11.5198 44.7293C11.5211 42.673 12.333 40.7014 13.7769 39.2483C15.2208 37.7952 17.1784 36.9796 19.2191 36.981C21.2598 36.9823 23.2163 37.8004 24.6583 39.2554C26.1004 40.7104 26.9098 42.6831 26.9084 44.7394Z" fill="#243438"/>
<path d="M24.2015 44.6291C24.2015 47.4046 21.971 49.6572 19.2117 49.6572C18.2255 49.6567 17.2616 49.3616 16.4418 48.8092C15.622 48.2568 14.9831 47.4719 14.606 46.5537C14.2288 45.6355 14.1302 44.6252 14.3228 43.6505C14.5153 42.6759 14.9902 41.7806 15.6876 41.0779C16.3849 40.3752 17.2733 39.8966 18.2406 39.7026C19.2078 39.5087 20.2104 39.608 21.1216 39.988C22.0328 40.3681 22.8117 41.0119 23.3599 41.8379C23.9081 42.664 24.201 43.6353 24.2015 44.6291Z" fill="#969796"/>
<path d="M71.9414 44.7374C71.9013 47.2115 70.8979 49.5706 69.1474 51.3059C67.397 53.0412 65.0398 54.0138 62.5842 54.0138C60.1287 54.0138 57.7715 53.0412 56.0211 51.3059C54.2706 49.5706 53.2671 47.2115 53.2271 44.7374C53.2274 42.2373 54.2128 39.8396 55.9667 38.0713C57.7206 36.303 60.0995 35.3088 62.5805 35.3071C65.0626 35.3075 67.4431 36.301 69.1984 38.0694C70.9538 39.8378 71.9404 42.2362 71.9414 44.7374Z" fill="white"/>
<path d="M70.2799 44.7369C70.2435 46.7694 69.4168 48.7062 67.9775 50.1306C66.5383 51.5551 64.6016 52.3532 62.5843 52.3532C60.567 52.3532 58.6303 51.5551 57.191 50.1306C55.7518 48.7062 54.925 46.7694 54.8887 44.7369C54.8703 43.7068 55.0557 42.6833 55.4342 41.7262C55.8127 40.7691 56.3766 39.8976 57.093 39.1626C57.8095 38.4275 58.664 37.8437 59.6069 37.4451C60.5497 37.0466 61.5619 36.8413 62.5843 36.8413C63.6067 36.8413 64.6189 37.0466 65.5617 37.4451C66.5045 37.8437 67.3591 38.4275 68.0755 39.1626C68.792 39.8976 69.3559 40.7691 69.7343 41.7262C70.1128 42.6833 70.2983 43.7068 70.2799 44.7369Z" fill="#243438"/>
<path d="M67.5726 44.6261C67.5726 47.4017 65.3459 49.6543 62.5828 49.6543C61.2603 49.6523 59.9925 49.1218 59.0575 48.1792C58.1226 47.2366 57.5968 45.9589 57.5955 44.6261C57.5968 43.2939 58.1227 42.0166 59.0578 41.0748C59.9929 40.133 61.2607 39.6037 62.5828 39.603C65.3422 39.603 67.5726 41.8506 67.5726 44.6261Z" fill="#969796"/>
<path d="M15.8957 7.85498H12.0648C8.86377 8.14033 2.49425 10.1541 2.61899 21.6195V25.8369C2.61899 29.4509 3.76291 32.3798 5.17628 32.3798H15.8957C17.3066 32.3798 18.453 29.4509 18.453 25.8369V14.3928C18.453 10.7789 17.3066 7.85498 15.8957 7.85498Z" fill="#808080"/>
<path d="M15.0793 10.0571H11.9332C9.30609 10.2922 4.08422 11.9439 4.18277 21.3504V24.8135C4.18277 27.7776 5.12211 30.1798 6.28349 30.1798H15.0781C16.237 30.1798 17.1738 27.7789 17.1738 24.8135V15.4222C17.1738 12.4581 16.237 10.0571 15.0781 10.0571" fill="#A2C2CA"/>
<path d="M10.554 21.8279C10.4031 17.8632 10.6264 13.7854 11.5969 10.0532C8.95231 10.3021 3.80031 11.9903 3.89885 21.3389V24.802C3.89885 27.7649 4.83819 30.1696 5.99708 30.1696H11.7142C11.0393 27.6606 10.6751 24.885 10.554 21.8279Z" fill="#83AFB7"/>
<path d="M4.19622 36.7917C4.19622 38.8508 3.36916 40.5189 2.34749 40.5189C1.32707 40.5189 0.5 38.8508 0.5 36.7917V36.71C0.5 34.6485 1.32707 32.9829 2.34749 32.9829C3.36791 32.9829 4.19622 34.6485 4.19622 36.71V36.7917Z" fill="#F1F1F1"/>
</svg>
