<svg width="81" height="80" viewBox="0 0 81 80" fill="none" xmlns="http://www.w3.org/2000/svg">
<path d="M54.8499 17.1888C54.8544 15.3094 54.4875 13.4475 53.7702 11.7097C53.0529 9.97183 51.9993 8.39219 50.6696 7.0611C49.3399 5.73001 47.7603 4.67359 46.0211 3.95228C44.2818 3.23097 42.4171 2.85892 40.5337 2.85742C32.6311 2.85742 26.2175 9.28026 26.2175 17.1888V17.1431H3.31152V80H77.7558V17.1431H54.8499V17.1888Z" fill="#FFDEA7"/>
<path d="M26.2175 17.1426V79.9995H23.3542V17.1426H26.2175ZM57.7132 17.1426H54.8499V79.9995H57.7132V17.1426Z" fill="#F3AD61"/>
<path d="M51.9868 51.4282H29.0808V74.2853H51.9868V51.4282Z" fill="#F3C07B"/>
<path d="M11.9013 55.1595V61.968C11.9013 62.4537 11.5004 62.8566 10.9851 62.8566H7.06241C6.57566 62.8566 6.1748 62.4566 6.1748 61.9709V55.1595C6.1748 54.6738 6.57566 54.2738 7.06241 54.2738H11.0137C11.5004 54.2738 11.9013 54.6738 11.9013 55.1595ZM20.491 55.1595V61.968C20.491 62.4537 20.0902 62.8566 19.5748 62.8566H15.6521C15.1654 62.8566 14.7645 62.4566 14.7645 61.9709V55.1595C14.7645 54.6738 15.1654 54.2738 15.6521 54.2738H19.6034C20.0902 54.2738 20.491 54.6738 20.491 55.1595ZM11.9013 40.851V47.6624C11.9013 48.1481 11.5004 48.5481 10.9851 48.5481H7.06241C6.57566 48.5481 6.1748 48.1481 6.1748 47.6624V40.851C6.1748 40.3652 6.57566 39.9652 7.06241 39.9652H11.0137C11.5004 39.9652 11.9013 40.3652 11.9013 40.851ZM20.491 40.851V47.6624C20.491 48.1481 20.0902 48.5481 19.5748 48.5481H15.6521C15.1654 48.5481 14.7645 48.1481 14.7645 47.6624V40.851C14.7645 40.3652 15.1654 39.9652 15.6521 39.9652H19.6034C20.0902 39.9652 20.491 40.3652 20.491 40.851ZM11.9013 26.5996V33.411C11.9013 33.8967 11.5004 34.2967 10.9851 34.2967H7.06241C6.57566 34.2967 6.1748 33.8967 6.1748 33.411V26.5996C6.1748 26.1139 6.57566 25.7139 7.06241 25.7139H11.0137C11.5004 25.7139 11.9013 26.1139 11.9013 26.5996ZM20.491 26.5996V33.411C20.491 33.8967 20.0902 34.2967 19.5748 34.2967H15.6521C15.1654 34.2967 14.7645 33.8967 14.7645 33.411V26.5996C14.7645 26.1139 15.1654 25.7139 15.6521 25.7139H19.6034C20.0902 25.7139 20.491 26.1139 20.491 26.5996ZM66.2857 55.1595V61.968C66.2857 62.4537 65.8849 62.8566 65.3981 62.8566H61.464C61.3472 62.857 61.2315 62.8343 61.1235 62.79C61.0154 62.7457 60.9173 62.6805 60.8345 62.5982C60.7518 62.5159 60.6862 62.4181 60.6414 62.3105C60.5966 62.2028 60.5735 62.0874 60.5735 61.9709V55.1595C60.5735 54.6738 60.9744 54.2738 61.4612 54.2738H65.3924C65.8791 54.2738 66.2857 54.6738 66.2857 55.1595ZM74.8926 55.1595V61.968C74.8926 62.4537 74.4918 62.8566 74.005 62.8566H70.0738C69.957 62.857 69.8413 62.8343 69.7332 62.79C69.6252 62.7457 69.527 62.6805 69.4443 62.5982C69.3616 62.5159 69.2959 62.4181 69.2512 62.3105C69.2064 62.2028 69.1833 62.0874 69.1833 61.9709V55.1595C69.1833 54.6738 69.5842 54.2738 70.0709 54.2738H74.0022C74.4889 54.2738 74.8926 54.6738 74.8926 55.1595ZM66.2857 40.851V47.6624C66.2857 48.1481 65.8849 48.5481 65.3981 48.5481H61.464C61.3472 48.5485 61.2315 48.5258 61.1235 48.4815C61.0154 48.4371 60.9173 48.372 60.8345 48.2897C60.7518 48.2074 60.6862 48.1096 60.6414 48.002C60.5966 47.8943 60.5735 47.7789 60.5735 47.6624V40.851C60.5735 40.3652 60.9744 39.9652 61.4612 39.9652H65.3924C65.8791 39.9652 66.2857 40.3652 66.2857 40.851ZM74.8926 40.851V47.6624C74.8926 48.1481 74.4918 48.5481 74.005 48.5481H70.0738C69.957 48.5485 69.8413 48.5258 69.7332 48.4815C69.6252 48.4371 69.527 48.372 69.4443 48.2897C69.3616 48.2074 69.2959 48.1096 69.2512 48.002C69.2064 47.8943 69.1833 47.7789 69.1833 47.6624V40.851C69.1833 40.3652 69.5842 39.9652 70.0709 39.9652H74.0022C74.4889 39.9652 74.8926 40.3652 74.8926 40.851ZM66.2857 26.5996V33.411C66.2857 33.8967 65.8849 34.2967 65.3981 34.2967H61.464C61.3472 34.2971 61.2315 34.2744 61.1235 34.2301C61.0154 34.1858 60.9173 34.1206 60.8345 34.0383C60.7518 33.956 60.6862 33.8582 60.6414 33.7506C60.5966 33.6429 60.5735 33.5275 60.5735 33.411V26.5996C60.5735 26.1139 60.9744 25.7139 61.4612 25.7139H65.3924C65.8791 25.7139 66.2857 26.1139 66.2857 26.5996ZM74.8926 26.5996V33.411C74.8926 33.8967 74.4918 34.2967 74.005 34.2967H70.0738C69.957 34.2971 69.8413 34.2744 69.7332 34.2301C69.6252 34.1858 69.527 34.1206 69.4443 34.0383C69.3616 33.956 69.2959 33.8582 69.2512 33.7506C69.2064 33.6429 69.1833 33.5275 69.1833 33.411V26.5996C69.1833 26.1139 69.5842 25.7139 70.0709 25.7139H74.0022C74.4889 25.7139 74.8926 26.1139 74.8926 26.5996ZM37.6705 39.1138V32.3138C37.6705 31.8281 37.2696 31.4281 36.7771 31.4281H32.8373C32.6016 31.4289 32.3757 31.5222 32.2085 31.688C32.0413 31.8538 31.9462 32.0786 31.944 32.3138V39.1138C31.944 39.5995 32.3448 39.9995 32.8373 39.9995H36.7771C37.2668 39.9995 37.6705 39.5995 37.6705 39.1138ZM49.1234 32.3138V39.1138C49.1234 39.5995 48.7226 39.9995 48.2301 39.9995H44.2903C44.1732 40.0003 44.0572 39.9779 43.9489 39.9338C43.8405 39.8896 43.742 39.8245 43.659 39.7421C43.5759 39.6598 43.51 39.5619 43.4651 39.4541C43.4201 39.3463 43.397 39.2306 43.397 39.1138V32.3138C43.397 31.8281 43.7978 31.4281 44.2903 31.4281H48.2301C48.7197 31.4281 49.1234 31.8281 49.1234 32.3138ZM38.0627 71.428H32.9833C32.8454 71.4273 32.7089 71.3993 32.5818 71.3456C32.4548 71.292 32.3396 71.2138 32.243 71.1155C32.1463 71.0172 32.0702 70.9008 32.0189 70.773C31.9675 70.6452 31.9421 70.5085 31.944 70.3709V52.4852C31.944 51.9138 32.3935 51.4281 32.9833 51.4281H38.0627C38.6239 51.4281 39.1021 51.8852 39.1021 52.4852V70.3709C39.1021 70.9709 38.6239 71.428 38.0627 71.428ZM43.0047 71.428H48.0841C48.6453 71.428 49.1234 70.9709 49.1234 70.3709V52.4852C49.1234 51.8852 48.6453 51.4281 48.0841 51.4281H43.0047C42.8667 51.4288 42.7303 51.4568 42.6032 51.5104C42.4761 51.5641 42.3609 51.6423 42.2643 51.7406C42.1677 51.8388 42.0915 51.9552 42.0402 52.083C41.9889 52.2109 41.9634 52.3475 41.9653 52.4852V70.3709C41.9653 70.9709 42.4435 71.428 43.0047 71.428Z" fill="#83CBFF"/>
<path d="M55.28 8.62854H74.4351C77.0721 8.62854 79.2968 10.5171 80.1902 13.1685C80.591 14.3628 80.7485 15.5399 79.7464 16.4942C79.2707 16.9444 78.641 17.1968 77.9855 17.1999H54.7359L54.7188 17.1485C54.694 17.0952 54.6806 17.0361 54.6787 16.9714C54.6787 16.0857 54.5928 15.1999 54.421 14.3428C54.0201 12.2285 53.1039 10.3142 51.8727 8.62854C50.5649 6.84383 48.8544 5.39139 46.8796 4.38875C44.9049 3.38611 42.7213 2.86142 40.5056 2.85713C35.8385 2.85713 31.7155 5.14284 29.1386 8.62854C27.9074 10.3142 26.9911 12.2285 26.5903 14.3428C26.4185 15.1999 26.3326 16.0857 26.3326 16.9714C26.3311 17.011 26.3213 17.05 26.3039 17.0857C26.2868 17.1199 26.2772 17.158 26.2753 17.1999H3.02579C2.65378 17.2004 2.28619 17.1195 1.94884 16.963C1.61149 16.8065 1.31256 16.5783 1.07305 16.2942C0.328611 15.4199 0.423099 14.4599 0.720876 13.4257C1.51686 10.64 3.796 8.62854 6.51894 8.62854H25.674C27.157 6.01308 29.3083 3.83661 31.9086 2.32088C34.509 0.805154 37.4655 0.0043307 40.477 0C43.4885 0.0043307 46.445 0.805154 49.0454 2.32088C51.6457 3.83661 53.797 6.01308 55.28 8.62854ZM44.8606 11.4285H44.8034C44.4323 11.43 44.0769 11.5782 43.815 11.8406C43.5531 12.103 43.4061 12.4582 43.4061 12.8285V17.1428H37.6653V12.8285C37.6653 12.4572 37.5175 12.1011 37.2544 11.8386C36.9913 11.576 36.6344 11.4285 36.2623 11.4285H36.205C35.8339 11.43 35.4785 11.5782 35.2167 11.8406C34.9548 12.103 34.8078 12.4582 34.8078 12.8285V24.3142C34.8078 25.0856 35.4377 25.7142 36.2079 25.7142H36.2652C36.6368 25.7134 36.9929 25.5656 37.2554 25.3031C37.5179 25.0407 37.6653 24.685 37.6653 24.3142V20.0285H43.4061V24.3142C43.4061 25.0856 44.0331 25.7142 44.8034 25.7142H44.8606C45.2322 25.7134 45.5883 25.5656 45.8508 25.3031C46.1133 25.0407 46.2607 24.685 46.2607 24.3142V12.8285C46.2607 12.4577 46.1133 12.1021 45.8508 11.8396C45.5883 11.5771 45.2322 11.4293 44.8606 11.4285ZM57.6851 79.9997H23.3548V78.914C23.3548 77.9426 24.1565 77.1426 25.1329 77.1426H26.2181V75.9026C26.2181 75.0083 26.9339 74.2854 27.8215 74.2854H53.2471C54.1347 74.2854 54.8505 75.0083 54.8505 75.9026V77.1426H55.9356C56.9091 77.1426 57.7137 77.9426 57.7137 78.914V79.9997H57.6851ZM53.3043 52.457C53.2929 52.4417 53.2881 52.4227 53.29 52.3998C53.2919 52.377 53.2871 52.3579 53.2757 52.3427C51.968 50.1401 50.1081 48.3152 47.879 47.0477C45.6499 45.7803 43.1285 45.1139 40.5629 45.1141C37.9973 45.1139 35.4759 45.7803 33.2468 47.0477C31.0177 48.3152 29.1578 50.1401 27.8501 52.3427V52.3684C27.8482 52.3741 27.8386 52.3846 27.8215 52.3998C27.7356 52.5712 27.6497 52.7712 27.6497 52.9998C27.6497 53.7141 28.228 54.2855 28.9496 54.2855H52.1189C52.2891 54.287 52.4579 54.2549 52.6155 54.1909C52.7732 54.127 52.9166 54.0326 53.0374 53.913C53.1583 53.7935 53.2542 53.6512 53.3197 53.4945C53.3852 53.3377 53.4189 53.1696 53.4189 52.9998C53.4259 52.8122 53.3866 52.6258 53.3043 52.457Z" fill="#F8312F"/>
</svg>
