<svg width="81" height="76" viewBox="0 0 81 76" fill="none" xmlns="http://www.w3.org/2000/svg">
<path d="M18.6819 50.4448H58.6818V71.7784H18.6819V50.4448Z" fill="#BF360C"/>
<path d="M13.2271 50.4451C17.2437 50.4451 20.4998 47.2613 20.4998 43.3339C20.4998 39.4065 17.2437 36.2227 13.2271 36.2227C9.21045 36.2227 5.95435 39.4065 5.95435 43.3339C5.95435 47.2613 9.21045 50.4451 13.2271 50.4451Z" fill="#FFA726"/>
<path d="M64.1362 50.4451C68.1529 50.4451 71.409 47.2613 71.409 43.3339C71.409 39.4065 68.1529 36.2227 64.1362 36.2227C60.1196 36.2227 56.8635 39.4065 56.8635 43.3339C56.8635 47.2613 60.1196 50.4451 64.1362 50.4451Z" fill="#FFA726"/>
<path d="M65.9546 30.8884C65.9546 8.31034 11.4092 16.1327 11.4092 30.8884V48.6664C11.4092 63.4222 23.591 75.3334 38.6819 75.3334C53.7728 75.3334 65.9546 63.4222 65.9546 48.6664V30.8884Z" fill="#FFB74D"/>
<path d="M49.5909 46.889C51.5993 46.889 53.2273 45.2971 53.2273 43.3334C53.2273 41.3697 51.5993 39.7778 49.5909 39.7778C47.5826 39.7778 45.9546 41.3697 45.9546 43.3334C45.9546 45.2971 47.5826 46.889 49.5909 46.889Z" fill="#784719"/>
<path d="M27.7728 46.889C29.7811 46.889 31.4092 45.2971 31.4092 43.3334C31.4092 41.3697 29.7811 39.7778 27.7728 39.7778C25.7645 39.7778 24.1365 41.3697 24.1365 43.3334C24.1365 45.2971 25.7645 46.889 27.7728 46.889Z" fill="#784719"/>
<path d="M38.6818 0.666504C23.2272 0.666504 0.5 10.9777 0.5 60.4006L18.6818 71.7785V39.7781L49.2272 22.3557L58.6818 34.4447V71.7785L76.8636 57.2006C76.8636 47.2449 75.2272 5.64435 48.8636 5.64435L46.3181 0.666504H38.6818Z" fill="#FF5722"/>
<path d="M76.8636 39.7781C75.7727 39.7781 75.0454 40.4892 75.0454 41.5559V29.1113C75.0454 13.4667 61.9545 0.666504 45.9545 0.666504H29.5909C28.5 0.666504 27.7727 1.37762 27.7727 2.4443C27.7727 3.51098 28.5 4.2221 29.5909 4.2221H45.9545C59.9545 4.2221 71.409 15.4222 71.409 29.1113V46.8893C71.409 47.956 72.1363 48.6671 73.2272 48.6671C74.3181 48.6671 75.0454 47.956 75.0454 46.8893V50.4449C75.0454 57.3783 69.409 62.8895 62.3181 62.8895H38.6818C37.5909 62.8895 36.8636 63.6006 36.8636 64.6673C36.8636 65.734 37.5909 66.4451 38.6818 66.4451H62.3181C71.409 66.4451 78.6817 59.3339 78.6817 50.4449V41.5559C78.6817 40.4892 77.9545 39.7781 76.8636 39.7781Z" fill="#757575"/>
<path d="M76.864 36.2227H75.0458C73.0458 36.2227 71.4094 37.8227 71.4094 39.7783V46.8895C71.4094 48.845 73.0458 50.4451 75.0458 50.4451H76.864C78.864 50.4451 80.5003 48.845 80.5003 46.8895V39.7783C80.5003 37.8227 78.864 36.2227 76.864 36.2227Z" fill="#37474F"/>
<path d="M38.6823 68.2235C40.6906 68.2235 42.3186 66.6316 42.3186 64.6679C42.3186 62.7042 40.6906 61.1123 38.6823 61.1123C36.674 61.1123 35.0459 62.7042 35.0459 64.6679C35.0459 66.6316 36.674 68.2235 38.6823 68.2235Z" fill="#37474F"/>
</svg>
