<svg width="81" height="80" viewBox="0 0 81 80" fill="none" xmlns="http://www.w3.org/2000/svg">
<path d="M22.7281 51.7063C22.7281 51.7063 4.62256 47.8012 4.31278 47.861C4.003 47.9209 0.377941 51.5799 0.50317 52.1454C0.628399 52.7175 16.4864 61.1598 16.4864 61.1598L21.0408 56.3099L22.7281 51.7063ZM20.2301 64.6258C20.2301 64.6258 29.0291 80.0002 29.4048 80.0002C29.7805 80.0002 33.834 76.8468 33.834 76.5341C33.834 76.2215 30.0903 57.8866 30.0903 57.8866L23.6574 58.645L20.2301 64.6258Z" fill="#006CA8"/>
<path d="M13.3091 15.1113C13.3091 15.1113 12.0436 16.5549 11.7734 17.0672C11.5032 17.5794 11.457 18.4576 12.037 18.7703C12.6171 19.0829 13.3223 18.8701 13.6716 18.4776C14.0209 18.085 15.7412 15.9495 15.7412 15.9495C15.7412 15.9495 13.4607 14.9915 13.3091 15.1113ZM22.5497 20.3337C22.5497 20.3337 21.5281 21.5577 21.1129 22.1166C20.7108 22.6554 20.7174 23.5003 21.2777 23.8995C22.0818 24.4716 22.8793 23.833 23.3143 23.3606C23.7163 22.9215 24.85 21.5777 24.85 21.5777L22.5497 20.3337ZM31.296 25.0837C31.296 25.0837 29.958 26.4342 29.5626 26.973C29.121 27.5651 29.0221 28.43 29.6285 28.8957C30.2942 29.4013 31.0324 29.1684 31.6321 28.6229C32.2319 28.084 33.5699 26.6005 33.5699 26.6005L31.296 25.0837ZM54.3844 47.8891C54.3844 47.8891 52.8157 48.9868 52.4268 49.4126C52.0445 49.8383 51.7875 50.6899 52.2818 51.1356C52.7696 51.5813 53.5078 51.5414 53.9428 51.2487C54.3778 50.956 56.5528 49.2995 56.5528 49.2995C56.5528 49.2995 54.5623 47.8159 54.3844 47.8891ZM59.6704 56.2449C59.6704 56.2449 58.3719 57.163 57.8315 57.5954C57.3042 58.0145 57.0999 58.8328 57.5415 59.365C58.1676 60.1234 59.1101 59.7176 59.644 59.3716C60.1449 59.0523 61.5817 58.0411 61.5817 58.0411L59.6704 56.2449ZM64.5082 64.7869C64.5082 64.7869 62.8934 65.7715 62.3727 66.1973C61.8058 66.6697 61.5027 67.4813 61.9838 68.08C62.5111 68.732 63.2822 68.6788 63.9941 68.3062C64.7059 67.9337 66.3536 66.816 66.3536 66.816L64.5082 64.7869ZM36.035 13.7475C36.035 13.7475 35.8043 12.1974 37.05 10.4478C38.2957 8.69809 42.4282 4.61334 43.0676 4.58008C43.7069 4.54681 45.236 5.3651 46.7717 6.88856C48.2349 8.3322 48.9138 10.1883 48.9402 10.6274C48.9665 11.0665 46.0797 13.9537 45.3283 14.6523C44.5769 15.3508 42.5535 17.626 42.5535 17.626L36.035 13.7475Z" fill="#9A9A9A"/>
<path d="M37.9209 13.98C37.9209 13.98 42.9828 7.73314 44.3406 8.67117C45.7115 9.61585 40.2343 14.9779 40.2343 14.9779L37.9209 13.98Z" fill="#C8C8C8"/>
<path d="M36.76 13.5797C36.76 13.5797 39.6271 10.6458 39.9435 10.1801C40.2599 9.71444 39.9699 9.01591 39.7128 8.63006C39.4558 8.25085 39.0603 8.10449 39.0603 8.10449C39.0603 8.10449 37.0369 9.93398 36.3448 11.5373C35.8043 12.7813 35.8966 13.4133 35.8966 13.4133L36.76 13.5797ZM41.6967 15.0898C41.6967 15.0898 42.7842 13.9522 43.3313 13.4998C43.8256 13.094 44.5572 13.1339 44.9922 13.3934C45.5524 13.726 45.6843 14.2981 45.6843 14.2981L43.6674 16.4603L41.6967 15.0898Z" fill="#848484"/>
<path d="M65.491 37.5114C65.491 37.5114 67.1453 35.5688 68.1076 34.5975C69.1028 33.5929 70.7242 32.2291 71.0538 32.2558C71.3833 32.289 72.84 33.1805 74.2109 34.5975C75.773 36.2075 76.7418 38.2099 76.7682 38.3962C76.8012 38.5758 73.8813 41.523 72.5829 42.6473C71.6536 43.4522 65.8732 45.8339 65.8732 45.5345C65.8864 45.2285 65.491 37.5114 65.491 37.5114Z" fill="#9A9A9A"/>
<path d="M66.4463 41.2697C66.4463 41.2697 71.2314 35.9742 72.3255 36.9654C73.4196 37.9567 66.8483 43.9175 66.8483 43.9175L66.4463 41.2697Z" fill="#C8C8C8"/>
<path d="M66.0907 39.9374L67.8373 37.9948C68.4569 37.3096 68.4173 36.3915 68.2328 35.9924C67.9955 35.4801 67.3825 35.3604 67.3825 35.3604L65.1086 37.8019L66.0907 39.9374ZM67.7451 44.3348C67.7451 44.3348 70.4869 41.8401 70.9549 41.4476C71.4228 41.0551 72.1808 40.7756 72.7806 41.1948C73.2288 41.5074 73.4265 41.8866 73.4265 41.8866C73.4265 41.8866 71.3174 44.2018 70.0453 45.0201C69.2478 45.5323 67.3628 45.825 67.3628 45.825L67.7451 44.3348Z" fill="#848484"/>
<path d="M5.96703 3.89288C5.32111 3.9461 1.22808 8.82918 1.08308 9.18842C0.938079 9.54767 1.08308 10.1331 2.09151 10.6387C3.09334 11.1443 31.4018 26.2326 31.8368 26.5919C32.2652 26.9578 37.8742 33.2645 37.8742 33.2645C37.8742 33.2645 51.7417 23.6181 51.6692 23.332C51.5967 23.0393 51.1683 17.0253 51.1683 17.0253C51.1683 17.0253 6.90295 3.8197 5.96703 3.89288ZM46.4227 41.7533C46.4227 41.7533 54.8988 49.5104 55.6172 50.4551C56.3356 51.3997 70.994 78.3764 71.2115 78.8088C71.4291 79.2413 72.3584 79.6072 72.8659 79.1016C73.3734 78.5959 77.1764 75.2563 77.2489 74.458C77.3214 73.6597 63.1639 27.6097 63.1639 27.6097L52.2426 31.6013L46.4227 41.7533Z" fill="#006CA8"/>
<path d="M42.3229 26.7386C42.3229 26.7386 35.6396 20.2123 35.1387 19.8464C34.6378 19.4872 3.31064 6.43457 3.31064 6.43457L2.02539 7.8649C2.02539 7.8649 33.7809 21.4031 34.2884 21.7624C34.7959 22.1216 41.0113 28.5481 41.0113 28.5481L42.3229 26.7386ZM52.5983 38.1746C52.5983 38.1746 59.9605 47.3021 60.4021 47.8941C60.8437 48.4862 73.7555 78.2637 73.7555 78.2637L75.0407 77.0529C75.0407 77.0529 62.1421 46.6701 61.9114 46.2576C61.6807 45.8451 53.1058 35.1476 53.1058 35.1476L52.5983 38.1746Z" fill="#014EAC"/>
<path d="M14.2511 63.4214C14.2511 63.4214 11.4961 67.3997 11.4961 67.7124C11.4961 68.0317 13.3416 70.0674 13.5525 70.0674C13.7634 70.0674 17.7707 67.1802 17.7707 67.1802L17.2105 64.2929L14.2511 63.4214Z" fill="#9A9A9A"/>
<path d="M14.2522 63.4214C14.2522 63.4214 19.7096 54.1542 25.5558 45.8716C31.5602 37.3628 36.431 32.4597 43.9184 24.237C53.3106 13.9253 59.5655 8.08428 65.3524 4.15254C70.1507 0.892717 77.0053 -1.31598 79.4506 0.886064C82.1331 3.30764 79.1738 10.9449 76.1617 15.2958C69.3268 25.1684 63.4608 29.8652 56.7313 36.458C50.0942 42.9577 44.4852 48.5992 37.5383 53.8614C32.8587 57.4073 17.7652 67.1934 17.7652 67.1934L14.2522 63.4214Z" fill="#C8C8C8"/>
<path d="M66.7822 5.31079L68.6079 7.25338C68.6079 7.25338 71.6662 4.27962 73.9533 6.49497C76.2997 8.76354 73.0635 11.9834 73.0635 11.9834L75.0342 14.2054C75.0342 14.2054 80.3795 8.09827 76.0162 4.12661C72.2198 0.667213 66.7822 5.31079 66.7822 5.31079Z" fill="#3B5361"/>
<path d="M29.8197 47.1891C28.9695 48.014 18.9248 60.0155 18.3645 60.7273C17.6461 61.6454 17.3165 62.7497 18.1272 63.4283C18.9379 64.1002 19.8145 63.4349 20.6121 62.8961C21.6139 62.2242 33.2536 51.8593 34.0248 51.1408C35.2639 49.9832 35.4748 47.8943 34.1698 46.7101C32.7329 45.4061 31.1116 45.9384 29.8197 47.1891Z" fill="#9A9A9A"/>
<path d="M29.4577 44.4695C28.8843 43.9706 28.1725 44.3032 27.4211 45.1215C26.7752 45.8333 26.4786 46.9376 27.1245 47.3834C27.7704 47.8291 28.6273 47.1771 29.1611 46.5185C29.695 45.8666 30.1037 45.035 29.4577 44.4695ZM31.3164 40.5976C30.7232 41.2829 29.8598 42.4138 30.6705 43.2188C31.468 44.0105 32.6742 43.0059 33.2014 42.4072C33.7221 41.8084 39.687 34.7433 47.2337 27.1326C54.6025 19.6949 59.5589 14.9914 60.3235 14.1665C60.9694 13.468 60.9101 12.357 60.3433 12.0044C59.671 11.5852 58.9262 11.8514 58.0035 12.7827C57.0807 13.7141 50.8192 19.4953 44.9137 25.5226C39.0081 31.55 32.0546 39.7394 31.3164 40.5976Z" fill="#DFDFDF"/>
<path d="M67.8037 25.6425C67.8037 25.6425 67.4412 23.1677 65.9187 24.139C64.2841 25.1835 65.5034 28.0175 65.5034 28.0175C65.5034 28.0175 66.1164 27.4388 66.7689 26.7469C67.3094 26.1814 67.6257 25.8488 67.8037 25.6425ZM61.9575 31.4636C61.9575 31.4636 61.7004 28.2903 59.9736 29.5942C58.596 30.6387 59.532 33.7588 59.532 33.7588C59.532 33.7588 60.3229 33.0337 60.837 32.5414C61.3577 32.0424 61.9575 31.4636 61.9575 31.4636ZM56.3815 36.7991C56.3815 36.7991 56.1837 34.1646 54.6348 35.0361C53.086 35.9076 54.1207 39.0211 54.1207 39.0211C54.1207 39.0211 54.8062 38.3957 55.2676 37.9301C55.729 37.4644 56.3815 36.7991 56.3815 36.7991ZM50.0673 42.9595C50.0673 42.9595 49.9486 40.3383 48.4261 41.0369C46.8443 41.762 47.7934 45.1216 47.7934 45.1216C47.7934 45.1216 48.5645 44.3965 48.9929 43.9907C49.4279 43.5915 50.0673 42.9595 50.0673 42.9595Z" fill="#3B5361"/>
</svg>
