<svg width="81" height="60" viewBox="0 0 81 60" fill="none" xmlns="http://www.w3.org/2000/svg">
<path d="M0.5 42.9165H80.5V59.6003H0.5V42.9165Z" fill="#42ADE2"/>
<path d="M64.8999 33.3638H66.3666V39.822H64.8999V33.3638ZM76.7666 33.3638H78.2332V39.822H76.7666V33.3638ZM70.7666 33.3638H72.2332V39.822H70.7666V33.3638Z" fill="#3E4347"/>
<path d="M57.4335 13.4497H35.1668L27.8335 26.5007L64.9002 37.9372L57.4335 13.4497Z" fill="#DAE3EA"/>
<path d="M56.3672 33.0962H79.0339V34.7108H56.3672V33.0962Z" fill="#3E4347"/>
<path d="M54.7666 13.4509H45.8333L48.7666 0.399902H51.8333L54.7666 13.4509Z" fill="#C5D0D8"/>
<path d="M32.1 19.9087H0.5L8.9 32.287L11.1667 30.4033L6.36667 23.2724H12.2333V29.7306H15.1667V23.2724H20.3667V29.7306H23.3V23.2724H32.1V19.9087Z" fill="#DAE3EA"/>
<path d="M60.766 37.939C60.0993 37.939 59.6993 38.6117 59.8327 39.5535V39.6881C60.0993 40.4954 60.766 41.1681 61.566 41.1681H79.166C79.8327 41.1681 80.4993 40.4953 80.4993 39.5535C80.4993 38.6117 79.966 37.939 79.166 37.939H60.766Z" fill="#3E4347"/>
<path d="M75.8332 49.2411H34.4999C17.8332 49.2411 4.8999 26.3682 4.8999 26.3682H27.8332C57.4332 26.3682 64.6332 41.0337 72.7666 41.0337H78.8999L75.8332 49.2411Z" fill="#F15744"/>
<path d="M17.3003 41.705H27.8336C43.0336 41.705 52.2336 45.6068 58.7669 49.3742H68.9003C61.8336 46.0105 52.7669 35.6504 27.8336 35.6504H11.4336C13.0336 37.6686 15.0336 39.6868 17.3003 41.705Z" fill="#C94747"/>
<path d="M36.2332 15.8726L30.8999 25.6945H53.0332L50.0999 15.8726H36.2332ZM41.4332 31.3454C40.6332 31.3454 39.9666 32.0182 39.9666 32.96V36.1891C39.9666 37.1309 40.6332 37.8037 41.4332 37.8037H44.3666C45.1666 37.8037 45.8332 37.1309 45.8332 36.1891V32.96C45.8332 32.0182 45.1666 31.3454 44.3666 31.3454H41.4332ZM32.4999 31.3454C31.6999 31.3454 31.0332 32.0182 31.0332 32.96V36.1891C31.0332 37.1309 31.6999 37.8037 32.4999 37.8037H35.4332C36.2332 37.8037 36.8999 37.1309 36.8999 36.1891V32.96C36.8999 32.0182 36.2332 31.3454 35.4332 31.3454H32.4999Z" fill="#3E4347"/>
<path d="M57.6999 6.85772C57.6999 5.9159 57.0332 5.24316 56.2332 5.24316H44.3666C43.5666 5.24316 42.8999 5.9159 42.8999 6.85772C42.8999 7.79955 43.5666 8.47228 44.3666 8.47228H56.2332C57.0332 8.60683 57.6999 7.79955 57.6999 6.85772Z" fill="#DAE3EA"/>
</svg>
