<svg width="60" height="60" viewBox="0 0 60 60" fill="none" xmlns="http://www.w3.org/2000/svg">
<circle cx="30" cy="30" r="30" fill="#208C65"/>
<path fill-rule="evenodd" clip-rule="evenodd" d="M47.2339 18.5678C48.1639 19.3898 48.2509 20.8118 47.4289 21.7478L30.1789 41.2478C29.9797 41.4731 29.7373 41.6561 29.4662 41.7861C29.195 41.9161 28.9005 41.9904 28.6002 42.0047C28.2998 42.0189 27.9996 41.9729 27.7174 41.8691C27.4351 41.7654 27.1765 41.6062 26.9569 41.4008L15.7069 30.9008C15.2741 30.4929 15.0204 29.9303 15.0012 29.3359C14.982 28.7416 15.1989 28.1638 15.6045 27.7288C16.0101 27.2939 16.5713 27.0372 17.1656 27.0149C17.7599 26.9926 18.3388 27.2065 18.7759 27.6098L28.3459 36.5198L44.0659 18.7598C44.2619 18.5381 44.4997 18.3572 44.7657 18.2275C45.0317 18.0979 45.3206 18.0219 45.616 18.0041C45.9114 17.9863 46.2074 18.0269 46.4871 18.1236C46.7668 18.2203 47.0246 18.3713 47.2459 18.5678H47.2339Z" fill="white"/>
</svg>
