<svg width="100" height="80" viewBox="0 0 100 80" fill="none" xmlns="http://www.w3.org/2000/svg">
<path d="M33.3333 8.80359L8.33333 2.20173C3.73056 0.985953 0 3.67763 0 8.21761V62.9822C0 67.5167 3.73056 72.1799 8.33333 73.3984L33.3333 80.0003V8.80359ZM66.6667 71.1969L91.6667 77.7987C96.2667 79.0118 100 76.3201 100 71.7856V17.021C100 12.4838 96.2667 7.82057 91.6667 6.6048L66.6667 0.00292969V71.1969Z" fill="#CCD6DD"/>
<path d="M66.6668 71.1939L33.3335 79.9973V8.8034L66.6668 0V71.1939Z" fill="#E1E8ED"/>
<path d="M33.3332 14.2803L11.111 8.4095C8.04431 7.59899 5.55542 9.39526 5.55542 12.4183V61.7064C5.55542 64.7294 8.04431 67.84 11.111 68.6478L33.3332 74.5213V14.2803ZM88.8888 11.3449L66.6665 5.47412V65.7151L88.8888 71.5859C91.9554 72.3964 94.4443 70.6029 94.4443 67.5744V18.2863C94.4443 15.266 91.9554 12.1554 88.8888 11.3449Z" fill="#55ACEE"/>
<path d="M66.6668 65.7176L33.3335 74.521V14.28L66.6668 5.47656V65.7176Z" fill="#88C9F9"/>
<path d="M33.3326 46.8616C32.5882 46.878 31.6799 47.1464 30.9854 47.2586C29.7743 47.4585 30.0715 48.6743 29.6993 48.4717C28.8394 48.016 28.0742 47.4047 27.4437 46.6699C26.5076 45.5911 28.1382 45.3638 28.6049 44.9667C29.0715 44.5697 27.7271 44.4958 27.2576 44.0576C26.7882 43.6223 25.9493 44.3424 25.2049 43.3019C24.4549 42.2723 24.9243 41.1387 24.8354 40.0708C24.741 39.0029 26.0465 39.137 26.8882 39.1562C27.7299 39.1644 28.3826 39.5505 28.3826 40.8046C28.3826 42.0533 29.4104 42.7433 29.1299 41.2044C28.8493 39.6655 29.4104 39.4054 29.7826 38.7674C30.1549 38.1376 30.8104 37.2614 31.6493 35.9196C32.2632 34.9393 32.7299 35.1447 33.3326 35.4706V26.3112C33.1799 26.1907 33.0271 26.0647 32.8743 26.0018C32.0326 25.6403 33.141 28.0637 32.4882 29.0385C31.8299 30.0133 30.8271 29.5669 29.7937 29.2959C28.7687 29.0248 27.8132 27.8035 28.5632 26.5385C29.3076 25.2734 30.7354 25.8046 31.4826 24.7504C32.2299 23.6962 28.8243 22.9103 27.6104 22.1737C26.3937 21.4317 24.9354 21.0538 23.7215 21.7739C22.5076 22.4968 19.9076 22.1381 18.8799 22.2833C17.8521 22.4311 17.6687 21.2729 17.4826 20.3857C17.2965 19.504 15.6687 19.4848 13.991 19.4601C12.3076 19.4328 9.15486 20.2296 9.69374 24.2767C9.88263 25.6841 11.3743 24.6162 11.6576 24.3753C11.941 24.1343 13.3382 24.9229 13.5215 26.1195C13.7104 27.3216 13.6187 28.5483 13.2465 29.493C12.866 30.4377 14.1799 32.2477 14.9243 33.907C15.6715 35.5637 16.516 35.7855 16.8882 35.8868C17.2632 35.9853 19.4104 37.4941 19.3187 38.614C19.2271 39.7395 21.2799 41.3276 22.1215 42.2833C22.9632 43.2389 23.4937 44.096 24.5854 44.5998C25.6771 45.1036 26.9521 47.4339 27.5132 47.7898C27.9437 48.0637 28.6743 49.0248 29.1132 49.378C28.5354 50.0407 27.4132 51.4262 27.4132 52.1957C27.4132 53.2444 28.6354 55.2159 29.1021 55.7554C29.566 56.292 30.9076 56.9656 31.1882 58.0828C31.4687 59.1973 30.9937 62.59 30.1549 63.3046C29.3104 64.0221 29.0049 66.1606 29.0049 66.1606C29.0049 66.1606 29.3021 66.9629 30.2965 66.5002C31.1549 66.1059 32.4521 64.9503 33.3354 64.3068V46.8616H33.3326Z" fill="#5C913B"/>
<path d="M34.0779 35.6541C33.8002 35.698 33.5585 35.687 33.3335 35.6843V26.5249C34.0391 26.7029 34.7557 27.3929 35.2974 28.5402C35.9474 29.934 36.9752 28.721 37.3502 29.5643C37.7224 30.4077 39.7807 31.6399 38.7529 31.5961C37.7224 31.555 36.6946 31.618 36.4168 32.8393C36.1335 34.066 36.8835 35.0134 36.1335 35.1065C35.3835 35.1996 35.1057 35.4953 34.0779 35.6541ZM41.2724 50.8732C40.0613 50.6706 40.2752 50.8102 39.5279 49.233C38.7835 47.6531 38.3307 47.1985 36.6502 47.4367C34.9696 47.675 35.0307 47.8091 34.5641 46.9904C34.3641 46.6399 33.8946 46.7659 33.3335 47.0753V64.5178C33.5835 64.2057 33.8057 63.94 33.9668 63.7867C35.4475 62.3971 36.8095 60.8896 38.0391 59.2796C39.3446 57.5791 38.8724 56.7495 39.5252 55.2243C40.1807 53.6963 41.0279 53.5348 42.1474 52.089C43.2724 50.6377 42.4863 51.0813 41.2724 50.8732ZM66.6668 31.0484V13.7593C66.5557 13.7702 66.4779 13.7921 66.3613 13.8004C65.7807 13.8305 65.0224 14.17 64.1974 14.6766C64.1307 14.6629 64.0696 14.6328 64.0029 14.6191C61.5141 14.1399 60.3585 17.9186 58.3391 17.7735C56.3141 17.6284 53.6168 16.8316 51.8613 19.181C50.1085 21.5276 49.7029 23.3705 51.8613 22.7242C54.0196 22.078 55.5057 18.8223 56.5835 19.7423C57.6613 20.6624 57.3891 21.7166 54.8279 22.768C52.2668 23.8223 49.5002 25.0052 48.0168 25.3967C46.5335 25.7883 46.1974 26.859 47.2057 27.6476C48.214 28.4362 46.5974 28.9373 44.9113 30.4406C43.2252 31.9384 45.3168 31.8425 46.7335 32.371C48.1502 32.8995 49.2279 31.4866 49.8363 29.819C50.4391 28.1541 53.0529 25.6541 54.1418 25.5912C55.2307 25.5282 55.2307 26.1306 55.0252 27.2396C54.989 27.434 55.0279 27.5216 55.0557 27.6174C54.5835 29.0961 54.1946 30.4378 54.0418 31.1936C53.9671 31.7333 53.942 32.2786 53.9668 32.8228C53.7279 32.8338 53.4585 32.8803 53.2779 32.8256C52.0613 32.4723 49.2946 32.2231 48.5529 32.9433C47.8113 33.6689 47.4085 34.3179 46.5307 34.923C45.6502 35.5227 42.0779 38.2746 42.0113 40.6295C41.9418 42.9816 41.8752 45.6405 43.2918 45.342C44.7085 45.0435 48.1502 43.0802 49.2279 41.8152C50.3057 40.5501 51.7863 40.3858 52.2613 41.388C52.7335 42.3984 52.3946 43.1651 51.9279 45.0956C51.4529 47.0342 52.2335 47.7325 52.9863 49.1153C53.7446 50.4953 54.3502 51.2374 54.3502 52.371C54.3502 53.4992 55.4307 54.3508 57.0446 52.0342C57.6097 51.2005 58.1075 50.3243 58.5335 49.4137C59.6696 48.1295 60.6668 46.8864 60.639 46.4126C60.6039 45.8437 60.5817 45.274 60.5724 44.704L60.8252 44.1016C61.1779 43.2993 61.4946 42.0589 61.8307 40.9389L61.8863 40.8732C62.5446 39.9504 62.4002 39.9066 63.4974 38.8031C64.2307 38.0638 64.2029 37.4011 64.0918 36.9466C64.3835 36.4674 64.4641 36.1799 64.0002 36.3031L63.9557 36.3141C63.9502 36.3141 63.9418 36.3661 63.939 36.3524C63.8752 35.9444 63.3668 36.3606 62.5474 36.7577C61.7585 36.7796 60.9752 36.5769 60.6918 35.75C60.3224 34.6656 59.0196 33.0227 58.9168 32.0917C58.9252 31.9794 58.9307 31.8809 58.9446 31.7522C58.9791 31.6528 59.0466 31.5679 59.1363 31.5112C59.2326 31.4594 59.3383 31.4268 59.4474 31.4154C59.5613 31.7193 59.6557 32.1793 59.6863 32.6859C59.7585 33.992 60.7807 33.2226 60.7807 34.0495C60.7807 34.8792 62.2529 35.3968 62.6168 35.5501C62.7196 35.5939 62.8779 35.4762 63.0585 35.2817C63.1446 35.3119 63.2252 35.3721 63.3168 35.3831C64.1279 35.4679 65.8779 32.6886 66.4196 32.1958C66.7029 31.9356 66.7085 31.4592 66.5113 31.1169L66.6668 31.0484Z" fill="#77B255"/>
<path d="M76.761 43.3429C76.6137 44.5477 77.2721 43.8933 78.4443 45.2734C79.6193 46.6644 78.1554 46.3522 77.6415 46.1386C77.1276 45.9196 76.6137 45.7799 76.0332 44.7202C75.4415 43.6496 76.0332 42.8172 76.0332 41.9081C76.0332 41.9081 76.911 42.1381 76.761 43.3429ZM77.7665 40.8758C78.8471 41.3303 78.0832 39.5559 78.4443 38.5729C78.8109 37.5981 79.3221 37.5652 79.9859 37.5789C80.6415 37.5844 81.1582 37.0559 81.5998 36.5138C82.0359 35.9689 82.8443 35.2706 82.7721 34.5066C82.6998 33.7427 82.4832 33.1868 82.1832 32.1983C81.8915 31.2125 83.0609 31.1906 83.5776 30.2514C84.0887 29.3122 83.5776 30.2514 84.7471 30.2295C85.9193 30.2076 85.4082 30.0707 85.6248 29.6326C85.8471 29.1972 85.9943 28.7372 85.7748 27.7706C85.5582 26.804 84.7471 27.4968 83.9415 27.2859C83.1387 27.0751 84.2359 26.1222 84.3082 25.1501C84.3804 24.178 85.4109 24.6983 86.1443 24.8078C86.8748 24.9146 87.0943 26.1331 87.3137 26.4426C87.5387 26.7492 89.7998 25.4431 90.3915 24.6874C90.9776 23.9343 89.8748 23.8905 90.1721 23.5838C90.4665 23.2799 88.4165 22.6611 87.6026 22.2996C86.7998 21.9354 84.7471 21.2947 83.9415 20.5225C83.1387 19.7476 80.0637 19.356 79.2526 19.5997C78.4443 19.8352 77.9304 19.2082 77.5693 18.488C77.2054 17.7706 75.6637 17.6748 75.2248 17.2093C74.7859 16.7438 74.3471 17.557 73.7554 17.6474C73.1721 17.7432 72.9526 17.7651 72.2165 17.0751C71.4859 16.385 72.4387 16.0592 71.4165 15.3746C70.4304 14.7229 69.1582 14.8763 66.6665 13.7563V31.0455C67.1026 31.0839 67.5248 31.1441 67.6776 31.1852C68.0415 31.281 68.9221 32.7542 68.9221 33.3319C68.9221 33.9097 69.361 35.5992 69.7304 36.6041C70.0943 37.6063 70.8971 37.9897 71.6359 38.844C72.3693 39.6983 72.7304 39.2191 72.7304 39.2191C72.7304 39.2191 72.4387 37.7295 72.4387 36.5767C72.4387 35.4157 73.3165 34.6572 73.3165 34.6572C73.3165 34.6572 74.7054 36.1852 74.7832 36.5329C74.8554 36.8834 75.9526 38.3292 76.0304 38.9316C76.1026 39.5313 76.6887 40.4267 77.7665 40.8758ZM83.5776 35.2131C84.0887 35.4322 86.2887 35.6813 85.1165 34.2985C83.9415 32.913 84.8221 33.4798 84.9693 32.2777C85.1165 31.0729 84.236 30.8429 84.236 30.8429C84.236 31.752 83.6498 32.5899 84.236 33.6523C84.8193 34.7202 83.0609 34.994 83.5776 35.2131ZM89.1443 49.9201C88.7804 49.3259 87.9748 48.8659 87.0943 48.6578C86.2193 48.4497 86.2887 47.3435 85.4109 47.1983C84.5332 47.0477 83.8998 46.1332 83.5054 45.7964C82.6387 45.068 83.211 46.3686 83.5054 47.7104C83.7998 49.0466 84.8971 48.384 85.9193 49.315C86.9443 50.246 87.0221 49.3588 87.9748 49.942C88.9248 50.5198 89.2943 51.3659 90.2082 51.5247C91.1221 51.6863 89.5137 50.5143 89.1443 49.9201ZM80.5665 45.999C81.2943 47.0998 81.0082 46.1167 81.9665 45.9552C82.9193 45.7936 81.1582 44.419 80.5721 43.7673C79.986 43.1156 79.4054 42.9431 78.8915 43.9015C78.3082 44.9941 79.8415 44.8982 80.5665 45.999ZM87.2415 53.0609C86.8721 52.1354 85.8026 51.1085 85.3665 50.5691C84.9248 50.0406 84.236 49.7148 83.6498 49.8051C83.0609 49.89 82.6971 49.5532 82.4054 48.8166C82.111 48.0882 81.5998 48.1786 81.1582 48.1485C80.7221 48.1156 78.9609 48.4743 77.9332 48.7783C76.9109 49.0877 76.4415 49.4683 75.7721 50.0297C74.7109 50.9059 75.2998 50.3172 75.7721 51.1907C76.2387 52.0614 75.2526 54.1096 75.1804 55.4157C75.1054 56.7219 77.0582 55.5006 77.7887 55.5225C78.5221 55.5554 78.3054 55.005 78.8887 54.6627C79.4776 54.3205 79.8582 54.3095 80.4971 55.1337C81.1443 55.9689 81.9887 56.8068 81.9887 57.5516C81.9887 58.2909 84.3054 60.1447 85.1859 59.8845C86.0637 59.6162 86.5776 58.7673 87.3832 58.1458C88.1915 57.5297 87.8998 55.8895 88.1165 54.9475C88.3415 54.0056 87.6026 53.9782 87.2415 53.0609Z" fill="#5C913B"/>
</svg>
