<svg width="126" height="100" viewBox="0 0 126 100" fill="none" xmlns="http://www.w3.org/2000/svg">
<path d="M42.1667 11.0047L10.9167 2.7524C5.16319 1.23269 0.5 4.59728 0.5 10.2723V78.728C0.5 84.3961 5.16319 90.2251 10.9167 91.7482L42.1667 100.001V11.0047ZM83.8333 88.9963L115.083 97.2486C120.833 98.7649 125.5 95.4003 125.5 89.7322V21.2765C125.5 15.605 120.833 9.77596 115.083 8.25624L83.8333 0.00390625V88.9963Z" fill="#CCD6DD"/>
<path d="M83.8337 88.9924L42.167 99.9966V11.0043L83.8337 0V88.9924Z" fill="#E1E8ED"/>
<path d="M42.1666 17.8505L14.3888 10.512C10.5554 9.49885 7.44434 11.7442 7.44434 15.523V77.1331C7.44434 80.9118 10.5554 84.8001 14.3888 85.8098L42.1666 93.1517V17.8505ZM111.611 14.1812L83.8332 6.84277V82.144L111.611 89.4825C115.444 90.4956 118.555 88.2537 118.555 84.4681V22.858C118.555 19.0827 115.444 15.1944 111.611 14.1812Z" fill="#55ACEE"/>
<path d="M83.8337 82.147L42.167 93.1512V17.85L83.8337 6.8457V82.147Z" fill="#88C9F9"/>
<path d="M42.1659 58.5769C41.2353 58.5974 40.0999 58.9328 39.2318 59.0732C37.7179 59.323 38.0895 60.8427 37.6242 60.5895C36.5493 60.0198 35.5928 59.2558 34.8047 58.3373C33.6346 56.9887 35.6728 56.7046 36.2561 56.2083C36.8395 55.712 35.1589 55.6196 34.5721 55.0719C33.9853 54.5277 32.9367 55.4279 32.0061 54.1272C31.0686 52.8403 31.6554 51.4232 31.5443 50.0884C31.4263 48.7535 33.0582 48.9212 34.1103 48.9451C35.1624 48.9554 35.9784 49.438 35.9784 51.0057C35.9784 52.5665 37.2631 53.429 36.9124 51.5054C36.5617 49.5818 37.2631 49.2566 37.7284 48.4591C38.1936 47.6719 39.0131 46.5766 40.0617 44.8994C40.829 43.6741 41.4124 43.9308 42.1659 44.3381V32.8889C41.9749 32.7383 41.7839 32.5808 41.5929 32.5021C40.5409 32.0503 41.9263 35.0794 41.1103 36.298C40.2874 37.5165 39.0339 36.9586 37.7422 36.6197C36.461 36.2808 35.2665 34.7543 36.204 33.173C37.1346 31.5916 38.9193 32.2557 39.8534 30.9379C40.7874 29.6201 36.5304 28.6378 35.0131 27.717C33.4922 26.7895 31.6693 26.3171 30.152 27.2173C28.6346 28.1209 25.3846 27.6725 24.0999 27.8539C22.8152 28.0388 22.586 26.5909 22.3534 25.482C22.1207 24.3798 20.086 24.3559 17.9888 24.3251C15.8846 24.2908 11.9436 25.2869 12.6172 30.3457C12.8534 32.1051 14.7179 30.7702 15.0721 30.469C15.4263 30.1678 17.1728 31.1535 17.402 32.6493C17.6381 34.1519 17.5235 35.6853 17.0582 36.8661C16.5825 38.047 18.2249 40.3095 19.1554 42.3837C20.0895 44.4545 21.145 44.7317 21.6103 44.8583C22.079 44.9816 24.7631 46.8675 24.6485 48.2674C24.5339 49.6742 27.0999 51.6594 28.152 52.854C29.204 54.0485 29.8672 55.1199 31.2318 55.7496C32.5964 56.3794 34.1902 59.2922 34.8915 59.7372C35.4297 60.0795 36.3429 61.2809 36.8915 61.7224C36.1693 62.5507 34.7665 64.2826 34.7665 65.2445C34.7665 66.5554 36.2943 69.0198 36.8777 69.6941C37.4575 70.3649 39.1346 71.2069 39.4853 72.6034C39.836 73.9965 39.2422 78.2373 38.1936 79.1307C37.1381 80.0275 36.7561 82.7007 36.7561 82.7007C36.7561 82.7007 37.1277 83.7035 38.3707 83.1251C39.4436 82.6322 41.0652 81.1878 42.1693 80.3834V58.5769H42.1659Z" fill="#5C913B"/>
<path d="M43.0975 44.5678C42.7503 44.6226 42.4482 44.6089 42.167 44.6055V33.1562C43.0489 33.3787 43.9448 34.2413 44.6219 35.6754C45.4344 37.4176 46.7191 35.9013 47.1878 36.9555C47.6531 38.0098 50.226 39.55 48.9413 39.4952C47.6531 39.4439 46.3684 39.5226 46.0212 41.0492C45.667 42.5826 46.6045 43.7669 45.667 43.8832C44.7295 43.9996 44.3823 44.3693 43.0975 44.5678ZM52.0906 63.5916C50.5767 63.3384 50.8441 63.5129 49.91 61.5414C48.9795 59.5664 48.4135 58.9983 46.3128 59.296C44.2121 59.5938 44.2885 59.7615 43.7052 58.7381C43.4552 58.3 42.8684 58.4575 42.167 58.8442V80.6474C42.4795 80.2572 42.7573 79.9252 42.9587 79.7335C44.8095 77.9965 46.512 76.1122 48.0489 74.0996C49.6809 71.974 49.0906 70.9369 49.9066 69.0304C50.726 67.1205 51.785 66.9186 53.1844 65.1114C54.5906 63.2973 53.608 63.8518 52.0906 63.5916ZM83.8337 38.8107V17.1992C83.6948 17.2129 83.5975 17.2403 83.4517 17.2506C82.726 17.2882 81.7781 17.7126 80.7469 18.3459C80.6635 18.3287 80.5871 18.2911 80.5038 18.274C77.3927 17.675 75.9482 22.3984 73.4239 22.217C70.8927 22.0356 67.5212 21.0396 65.3267 23.9763C63.1357 26.9097 62.6288 29.2132 65.3267 28.4054C68.0246 27.5976 69.8823 23.5279 71.2295 24.678C72.5767 25.8281 72.2364 27.1458 69.035 28.4602C65.8337 29.778 62.3753 31.2566 60.5212 31.7461C58.667 32.2355 58.2469 33.5738 59.5073 34.5596C60.7677 35.5453 58.7469 36.1717 56.6392 38.0508C54.5316 39.9231 57.1462 39.8033 58.917 40.4639C60.6878 41.1245 62.035 39.3583 62.7955 37.2739C63.5489 35.1928 66.8163 32.0678 68.1774 31.9891C69.5385 31.9103 69.5385 32.6634 69.2816 34.0496C69.2364 34.2926 69.285 34.4021 69.3198 34.5219C68.7295 36.3702 68.2434 38.0474 68.0524 38.9921C67.9589 39.6668 67.9276 40.3484 67.9587 41.0286C67.66 41.0423 67.3232 41.1005 67.0975 41.0321C65.5767 40.5905 62.1184 40.2791 61.1913 41.1793C60.2642 42.0863 59.7607 42.8975 58.6635 43.6539C57.5628 44.4035 53.0975 47.8434 53.0142 50.787C52.9274 53.7272 52.8441 57.0507 54.6149 56.6776C56.3857 56.3045 60.6878 53.8504 62.035 52.2691C63.3823 50.6877 65.233 50.4824 65.8267 51.7351C66.417 52.9981 65.9934 53.9565 65.41 56.3696C64.8163 58.7929 65.792 59.6657 66.733 61.3942C67.6809 63.1193 68.4378 64.0469 68.4378 65.4639C68.4378 66.8741 69.7885 67.9386 71.8059 65.0429C72.5122 64.0007 73.1345 62.9055 73.667 61.7673C75.0871 60.162 76.3337 58.6081 76.2989 58.0159C76.2551 57.3047 76.2273 56.5926 76.2156 55.8801L76.5316 55.1271C76.9725 54.1242 77.3684 52.5737 77.7885 51.1738L77.858 51.0916C78.6809 49.9382 78.5003 49.8834 79.8718 48.504C80.7885 47.5799 80.7538 46.7515 80.6149 46.1834C80.9795 45.5844 81.0802 45.225 80.5003 45.379L80.4448 45.3927C80.4378 45.3927 80.4274 45.4577 80.4239 45.4406C80.3441 44.9306 79.7087 45.4509 78.6844 45.9472C77.6982 45.9746 76.7191 45.7213 76.3649 44.6876C75.9031 43.3322 74.2746 41.2785 74.1462 40.1148C74.1566 39.9744 74.1635 39.8512 74.1809 39.6903C74.224 39.5662 74.3084 39.46 74.4205 39.3891C74.5408 39.3244 74.673 39.2836 74.8093 39.2693C74.9517 39.6493 75.0698 40.2243 75.108 40.8575C75.1982 42.4902 76.476 41.5284 76.476 42.5621C76.476 43.5992 78.3163 44.2461 78.7712 44.4377C78.8996 44.4925 79.0975 44.3453 79.3232 44.1023C79.4309 44.14 79.5316 44.2153 79.6462 44.2289C80.66 44.3351 82.8475 40.8609 83.5246 40.2448C83.8788 39.9197 83.8857 39.3241 83.6392 38.8963L83.8337 38.8107Z" fill="#77B255"/>
<path d="M96.4511 54.1785C96.267 55.6845 97.09 54.8665 98.5552 56.5916C100.024 58.3303 98.1941 57.9401 97.5518 57.6732C96.9094 57.3993 96.267 57.2248 95.5413 55.9002C94.8018 54.5619 95.5413 53.5213 95.5413 52.385C95.5413 52.385 96.6386 52.6725 96.4511 54.1785ZM97.708 51.0946C99.0587 51.6628 98.1038 49.4448 98.5552 48.216C99.0136 46.9975 99.6525 46.9564 100.482 46.9735C101.302 46.9804 101.948 46.3198 102.5 45.6421C103.045 44.9609 104.055 44.0881 103.965 43.1332C103.875 42.1782 103.604 41.4834 103.229 40.2478C102.864 39.0156 104.326 38.9882 104.972 37.8142C105.611 36.6402 104.972 37.8142 106.434 37.7868C107.899 37.7594 107.26 37.5883 107.531 37.0406C107.809 36.4964 107.993 35.9214 107.718 34.7131C107.448 33.5049 106.434 34.3708 105.427 34.1073C104.423 33.8437 105.795 32.6526 105.885 31.4375C105.975 30.2224 107.264 30.8728 108.18 31.0097C109.093 31.1432 109.368 32.6663 109.642 33.0531C109.923 33.4364 112.75 31.8038 113.489 30.8591C114.222 29.9178 112.843 29.863 113.215 29.4797C113.583 29.0998 111.021 28.3262 110.003 27.8744C109 27.4192 106.434 26.6182 105.427 25.653C104.423 24.6844 100.58 24.1949 99.5656 24.4995C98.5552 24.7939 97.9129 24.0101 97.4615 23.1099C97.0066 22.2131 95.0795 22.0933 94.5309 21.5114C93.9823 20.9296 93.4337 21.9461 92.6941 22.0591C91.965 22.1789 91.6906 22.2063 90.7705 21.3437C89.8573 20.4812 91.0483 20.0739 89.7705 19.2182C88.5379 18.4036 86.9476 18.5952 83.833 17.1953V38.8068C84.3781 38.8547 84.9059 38.93 85.0969 38.9813C85.5518 39.1011 86.6525 40.9426 86.6525 41.6648C86.6525 42.387 87.2011 44.4989 87.6629 45.755C88.1177 47.0078 89.1212 47.487 90.0448 48.5549C90.9615 49.6228 91.4129 49.0238 91.4129 49.0238C91.4129 49.0238 91.0483 47.1618 91.0483 45.7208C91.0483 44.2695 92.1455 43.3214 92.1455 43.3214C92.1455 43.3214 93.8816 45.2313 93.9788 45.666C94.0691 46.1041 95.4406 47.9114 95.5379 48.6644C95.6281 49.414 96.3608 50.5332 97.708 51.0946ZM104.972 44.0163C105.611 44.2901 108.361 44.6015 106.896 42.873C105.427 41.1411 106.527 41.8496 106.711 40.347C106.896 38.841 105.795 38.5535 105.795 38.5535C105.795 39.6899 105.062 40.7372 105.795 42.0653C106.524 43.4001 104.326 43.7424 104.972 44.0163ZM111.93 62.4C111.475 61.6573 110.468 61.0823 109.368 60.8221C108.274 60.562 108.361 59.1792 107.264 58.9978C106.166 58.8095 105.375 57.6663 104.882 57.2453C103.798 56.3349 104.514 57.9607 104.882 59.6378C105.25 61.3082 106.621 60.4798 107.899 61.6436C109.18 62.8073 109.277 61.6984 110.468 62.4274C111.656 63.1496 112.118 64.2073 113.26 64.4058C114.402 64.6077 112.392 63.1428 111.93 62.4ZM101.208 57.4986C102.118 58.8746 101.76 57.6458 102.958 57.4438C104.149 57.2419 101.948 55.5237 101.215 54.709C100.482 53.8944 99.7566 53.6788 99.1143 54.8767C98.3851 56.2424 100.302 56.1226 101.208 57.4986ZM109.552 66.326C109.09 65.1691 107.753 63.8855 107.208 63.2112C106.656 62.5506 105.795 62.1433 105.062 62.2563C104.326 62.3624 103.871 61.9414 103.507 61.0206C103.139 60.1102 102.5 60.2231 101.948 60.1855C101.402 60.1444 99.2011 60.5928 97.9163 60.9727C96.6386 61.3595 96.0518 61.8353 95.215 62.5369C93.8886 63.6322 94.6247 62.8963 95.215 63.9882C95.7983 65.0766 94.5656 67.6369 94.4754 69.2696C94.3816 70.9022 96.8226 69.3757 97.7358 69.4031C98.6525 69.4441 98.3816 68.7561 99.1108 68.3283C99.8469 67.9004 100.323 67.8868 101.121 68.917C101.93 69.961 102.986 71.0083 102.986 71.9393C102.986 72.8635 105.882 75.1807 106.982 74.8555C108.08 74.5201 108.722 73.4591 109.729 72.6821C110.739 71.912 110.375 69.8617 110.646 68.6843C110.927 67.5068 110.003 67.4726 109.552 66.326Z" fill="#5C913B"/>
</svg>
